# xmcd CD database file
#
# Track frame offsets:
#	150
#	16162
#	28285
#	44760
#	56017
#	70182
#	81180
#	96080
#	110002
#	127087
#	140902
#	153465
#	164132
#	183095
#	193350
#	205517
#	222525
#	242985
#	261975
#
# Disc length: 3672 seconds
#
# Revision: 3
# Processed by: cddbd v1.5.2PL0 Copyright (c) Steve Scherf et al.
# Submitted via: jetAudio 7
#
DISCID=2f0e5613
DTITLE=Various Artist - Country Moods And Memories Disc 4
DYEAR=1900
DGENRE=Country
TTITLE0=Sea Of Heartbreak
TTITLE1=There Goes My Everything
TTITLE2=You've Lost That Lovin' Feelin'
TTITLE3=It's Only Make Believe
TTITLE4=The Streets Of Laredo
TTITLE5=Crying In The Chapel
TTITLE6=Somewhere In My Broken Heart
TTITLE7=A Church, A Courtroom And Then Goodbye
TTITLE8=Frankie And Johnny
TTITLE9=Baby's Gone
TTITLE10=Cold, Cold Heart
TTITLE11=I'm So Lonesome I Could Cry
TTITLE12=The Banks Of The Ohio
TTITLE13=Three Cigarettes In An Ashtray
TTITLE14=Crying Time
TTITLE15=Don't Cry Joni
TTITLE16=I Can't Make You Love Me
TTITLE17=In The Pines
TTITLE18=I Wish That I Could Hurt That Way Again
EXTD=
EXTT0=
EXTT1=
EXTT2=
EXTT3=
EXTT4=
EXTT5=
EXTT6=
EXTT7=
EXTT8=
EXTT9=
EXTT10=
EXTT11=
EXTT12=
EXTT13=
EXTT14=
EXTT15=
EXTT16=
EXTT17=
EXTT18=
PLAYORDER=
